<svg xmlns="http://www.w3.org/2000/svg" viewBox="0 0 24 24" fill="#FF7A59"><path d="M18.164 7.93V5.084a2.198 2.198 0 0 0 1.267-1.984v-.066a2.2 2.2 0 0 0-2.198-2.198h-.065a2.2 2.2 0 0 0-2.198 2.198v.066c0 .861.498 1.606 1.222 1.962v2.868a5.908 5.908 0 0 0-2.768 1.32l-7.3-5.685a2.349 2.349 0 0 0 .073-.54 2.363 2.363 0 1 0-2.363 2.363c.47 0 .903-.14 1.268-.378l7.17 5.584a5.926 5.926 0 0 0-.774 2.94 5.94 5.94 0 0 0 .873 3.1l-2.4 2.4a1.857 1.857 0 0 0-.553-.09 1.876 1.876 0 1 0 1.876 1.876c0-.194-.035-.38-.09-.553l2.36-2.36a5.932 5.932 0 1 0 4.6-12.907zm-.832 9.477a3.406 3.406 0 1 1 0-6.812 3.406 3.406 0 0 1 0 6.812z"/></svg>