<svg xmlns="http://www.w3.org/2000/svg" viewBox="0 0 24 24" fill="#FFE01B"><path d="M17.06 11.57c.59-.69.95-1.59.95-2.57 0-2.21-1.79-4-4-4-.34 0-.67.04-.99.12C12.18 3.87 10.74 3 9.12 3 6.84 3 5 4.84 5 7.12c0 .5.09.97.25 1.41C3.39 9.17 2 10.89 2 12.93c0 2.52 2.04 4.57 4.57 4.57h1.12c.5 1.41 1.84 2.42 3.42 2.42.87 0 1.66-.31 2.28-.82A4.564 4.564 0 0 0 17.43 21c2.52 0 4.57-2.04 4.57-4.57 0-2.08-1.39-3.84-3.3-4.39a3.97 3.97 0 0 0-1.64-.47zm-5.95 7.38c-.93 0-1.74-.52-2.16-1.29h2.69a.45.45 0 0 0 0-.9H8.55a2.49 2.49 0 0 1-.04-.47c0-1.38 1.12-2.5 2.5-2.5.72 0 1.36.3 1.82.79l.64-.64a3.38 3.38 0 0 0-2.46-1.05 3.41 3.41 0 0 0-3.4 3.4c0 .17.01.33.04.49A3.66 3.66 0 0 1 6.57 16.6a3.67 3.67 0 0 1-3.67-3.67c0-1.67 1.12-3.07 2.65-3.5l.34-.1-.16-.32a3.19 3.19 0 0 1-.33-1.41 3.12 3.12 0 0 1 5.52-2l.29.34.37-.24A3 3 0 0 1 14.01 5a3.1 3.1 0 0 1 2.76 1.69l.15.3.33-.08c.25-.06.5-.09.76-.09a3.1 3.1 0 0 1 3.09 3.1c0 .7-.23 1.35-.62 1.87l-.19.25.27.16c1.61.96 2.54 2.39 2.54 3.37a3.67 3.67 0 0 1-3.67 3.67c-1.36 0-2.56-.75-3.19-1.86l-.31-.54-.42.45a2.49 2.49 0 0 1-1.81.78z"/></svg>