<svg xmlns="http://www.w3.org/2000/svg" viewBox="0 0 24 24" fill="#2CA01C"><path d="M12 0C5.373 0 0 5.373 0 12s5.373 12 12 12 12-5.373 12-12S18.627 0 12 0zm-1.108 17.61H8.047c-1.862 0-3.372-1.51-3.372-3.373V9.764c0-1.862 1.51-3.373 3.372-3.373h.47v2.249h-.47c-.621 0-1.124.504-1.124 1.124v4.473c0 .62.503 1.124 1.124 1.124h2.845V17.61zm8.433-4.373c0 1.862-1.511 3.373-3.373 3.373h-.47v-2.249h.47c.62 0 1.124-.504 1.124-1.124V8.764c0-.62-.504-1.124-1.124-1.124H13.11V5.39h2.844c1.862 0 3.373 1.511 3.373 3.373v4.473h-.002z"/></svg>