<svg xmlns="http://www.w3.org/2000/svg" viewBox="0 0 24 24" fill="#F22F46"><path d="M12 0C5.381 0 0 5.381 0 12s5.381 12 12 12 12-5.381 12-12S18.619 0 12 0zm0 20.16c-4.508 0-8.16-3.652-8.16-8.16S7.492 3.84 12 3.84s8.16 3.652 8.16 8.16-3.652 8.16-8.16 8.16zm3.6-11.28c0 1.103-.897 2-2 2s-2-.897-2-2 .897-2 2-2 2 .897 2 2zm0 4.24c0 1.103-.897 2-2 2s-2-.897-2-2 .897-2 2-2 2 .897 2 2zm-4.24 0c0 1.103-.897 2-2 2s-2-.897-2-2 .897-2 2-2 2 .897 2 2zm0-4.24c0 1.103-.897 2-2 2s-2-.897-2-2 .897-2 2-2 2 .897 2 2z"/></svg>