<svg xmlns="http://www.w3.org/2000/svg" viewBox="0 0 24 24" fill="#FF4A00"><path d="M15.535 8.465l-1.406 3.399 3.399-1.406a8.482 8.482 0 0 0 0-1.993l-3.399 1.406 1.406-3.399a8.441 8.441 0 0 0-1.41-1.41L10.727 8.46l1.406-3.399a8.482 8.482 0 0 0-1.993 0L11.546 8.46l-3.399-1.406a8.441 8.441 0 0 0-1.41 1.41L10.136 11.862l-3.399-1.406a8.482 8.482 0 0 0 0 1.993l3.399-1.406-1.406 3.399a8.441 8.441 0 0 0 1.41 1.41l3.399-3.399-1.406 3.399a8.482 8.482 0 0 0 1.993 0l-1.406-3.399 3.399 1.406a8.441 8.441 0 0 0 1.41-1.41l-3.399-3.399 3.399 1.406a8.482 8.482 0 0 0 0-1.993l-1.994.999zM12 0C5.373 0 0 5.373 0 12s5.373 12 12 12 12-5.373 12-12S18.627 0 12 0zm0 17a5 5 0 1 1 0-10 5 5 0 0 1 0 10z"/></svg>